{
  "accessors": [
    {
      "name": "/20-A-00-274-1_Mesh.18386-Mesh_0_positions",
      "componentType": 5126,
      "count": 138,
      "min": [
        -89.59998321533203,
        32.69999694824219,
        300.2449951171875
      ],
      "max": [
        -88.89997100830078,
        33.75,
        301.14501953125
      ],
      "type": "VEC3",
      "bufferView": 0,
      "byteOffset": 0
    },
    {
      "name": "/20-A-00-274-1_Mesh.18386-Mesh_0_normals",
      "componentType": 5126,
      "count": 138,
      "min": [
        -1,
        -1,
        -1
      ],
      "max": [
        1,
        1,
        1
      ],
      "type": "VEC3",
      "bufferView": 1,
      "byteOffset": 0
    },
    {
      "name": "/20-A-00-274-1_Mesh.18386-Mesh_0_indices",
      "componentType": 5123,
      "count": 228,
      "min": [
        0
      ],
      "max": [
        137
      ],
      "type": "SCALAR",
      "bufferView": 2,
      "byteOffset": 0
    },
    {
      "name": "/20-A-00-274-1.1_Mesh.18387-Mesh_0_positions",
      "componentType": 5126,
      "count": 24,
      "min": [
        -89.53583526611328,
        33.214141845703125,
        300.2950134277344
      ],
      "max": [
        -89.06412506103516,
        33.68585968017578,
        301.0950012207031
      ],
      "type": "VEC3",
      "bufferView": 0,
      "byteOffset": 1656
    },
    {
      "name": "/20-A-00-274-1.1_Mesh.18387-Mesh_0_normals",
      "componentType": 5126,
      "count": 24,
      "min": [
        -0.7071067690849304,
        -0.7109960317611694,
        -1
      ],
      "max": [
        0.7109960317611694,
        0.7074066996574402,
        0.9999995827674866
      ],
      "type": "VEC3",
      "bufferView": 1,
      "byteOffset": 1656
    },
    {
      "name": "/20-A-00-274-1.1_Mesh.18387-Mesh_0_indices",
      "componentType": 5123,
      "count": 36,
      "min": [
        0
      ],
      "max": [
        23
      ],
      "type": "SCALAR",
      "bufferView": 2,
      "byteOffset": 456
    },
    {
      "name": "/20-A-00-274-2_Mesh.18388-Mesh_0_positions",
      "componentType": 5126,
      "count": 138,
      "min": [
        -89.59998321533203,
        31.700000762939453,
        300.2449951171875
      ],
      "max": [
        -88.9999771118164,
        32.70000076293945,
        301.2450256347656
      ],
      "type": "VEC3",
      "bufferView": 0,
      "byteOffset": 1944
    },
    {
      "name": "/20-A-00-274-2_Mesh.18388-Mesh_0_normals",
      "componentType": 5126,
      "count": 138,
      "min": [
        -1,
        -1,
        -1
      ],
      "max": [
        1,
        1,
        1
      ],
      "type": "VEC3",
      "bufferView": 1,
      "byteOffset": 1944
    },
    {
      "name": "/20-A-00-274-2_Mesh.18388-Mesh_0_indices",
      "componentType": 5123,
      "count": 228,
      "min": [
        0
      ],
      "max": [
        137
      ],
      "type": "SCALAR",
      "bufferView": 2,
      "byteOffset": 528
    },
    {
      "name": "Box_Mesh.18389-Mesh_0_positions",
      "componentType": 5126,
      "count": 24,
      "min": [
        -89.54998016357422,
        31.750001907348633,
        301.2449951171875
      ],
      "max": [
        -89.04998016357422,
        32.55000305175781,
        302.33502197265625
      ],
      "type": "VEC3",
      "bufferView": 0,
      "byteOffset": 3600
    },
    {
      "name": "Box_Mesh.18389-Mesh_0_normals",
      "componentType": 5126,
      "count": 24,
      "min": [
        -1,
        -1,
        -1
      ],
      "max": [
        1,
        1,
        1
      ],
      "type": "VEC3",
      "bufferView": 1,
      "byteOffset": 3600
    },
    {
      "name": "Box_Mesh.18389-Mesh_0_indices",
      "componentType": 5123,
      "count": 36,
      "min": [
        0
      ],
      "max": [
        23
      ],
      "type": "SCALAR",
      "bufferView": 2,
      "byteOffset": 984
    },
    {
      "name": "/20-A-00-274-2.1_Mesh.18390-Mesh_0_positions",
      "componentType": 5126,
      "count": 24,
      "min": [
        -89.54998016357422,
        31.764142990112305,
        300.30914306640625
      ],
      "max": [
        -89.04998016357422,
        32.535858154296875,
        301.08087158203125
      ],
      "type": "VEC3",
      "bufferView": 0,
      "byteOffset": 3888
    },
    {
      "name": "/20-A-00-274-2.1_Mesh.18390-Mesh_0_normals",
      "componentType": 5126,
      "count": 24,
      "min": [
        -1,
        -0.7109960317611694,
        -0.7109960317611694
      ],
      "max": [
        1,
        0.7075066566467285,
        0.7075066566467285
      ],
      "type": "VEC3",
      "bufferView": 1,
      "byteOffset": 3888
    },
    {
      "name": "/20-A-00-274-2.1_Mesh.18390-Mesh_0_indices",
      "componentType": 5123,
      "count": 36,
      "min": [
        0
      ],
      "max": [
        23
      ],
      "type": "SCALAR",
      "bufferView": 2,
      "byteOffset": 1056
    },
    {
      "name": "/20-A-00-274-3_Mesh.18391-Mesh_0_positions",
      "componentType": 5126,
      "count": 120,
      "min": [
        -89.59998321533203,
        31.700000762939453,
        302.3349914550781
      ],
      "max": [
        -88.9999771118164,
        32.60000228881836,
        302.7250061035156
      ],
      "type": "VEC3",
      "bufferView": 0,
      "byteOffset": 4176
    },
    {
      "name": "/20-A-00-274-3_Mesh.18391-Mesh_0_normals",
      "componentType": 5126,
      "count": 120,
      "min": [
        -1,
        -1,
        -1
      ],
      "max": [
        1,
        1,
        1
      ],
      "type": "VEC3",
      "bufferView": 1,
      "byteOffset": 4176
    },
    {
      "name": "/20-A-00-274-3_Mesh.18391-Mesh_0_indices",
      "componentType": 5123,
      "count": 180,
      "min": [
        0
      ],
      "max": [
        119
      ],
      "type": "SCALAR",
      "bufferView": 2,
      "byteOffset": 1128
    },
    {
      "name": "Box.001_Mesh.18392-Mesh_0_positions",
      "componentType": 5126,
      "count": 24,
      "min": [
        -89.54998016357422,
        31.750001907348633,
        302.7249755859375
      ],
      "max": [
        -89.04998016357422,
        32.55000305175781,
        302.7449951171875
      ],
      "type": "VEC3",
      "bufferView": 0,
      "byteOffset": 5616
    },
    {
      "name": "Box.001_Mesh.18392-Mesh_0_normals",
      "componentType": 5126,
      "count": 24,
      "min": [
        -1,
        -1,
        -1
      ],
      "max": [
        1,
        1,
        1
      ],
      "type": "VEC3",
      "bufferView": 1,
      "byteOffset": 5616
    },
    {
      "name": "Box.001_Mesh.18392-Mesh_0_indices",
      "componentType": 5123,
      "count": 36,
      "min": [
        0
      ],
      "max": [
        23
      ],
      "type": "SCALAR",
      "bufferView": 2,
      "byteOffset": 1488
    },
    {
      "name": "/20-A-00-274-4_Mesh.18393-Mesh_0_positions",
      "componentType": 5126,
      "count": 138,
      "min": [
        -89.59998321533203,
        31.600000381469727,
        302.7449951171875
      ],
      "max": [
        -88.9999771118164,
        32.60000228881836,
        303.7450256347656
      ],
      "type": "VEC3",
      "bufferView": 0,
      "byteOffset": 5904
    },
    {
      "name": "/20-A-00-274-4_Mesh.18393-Mesh_0_normals",
      "componentType": 5126,
      "count": 138,
      "min": [
        -1,
        -1,
        -1
      ],
      "max": [
        1,
        1,
        1
      ],
      "type": "VEC3",
      "bufferView": 1,
      "byteOffset": 5904
    },
    {
      "name": "/20-A-00-274-4_Mesh.18393-Mesh_0_indices",
      "componentType": 5123,
      "count": 228,
      "min": [
        0
      ],
      "max": [
        137
      ],
      "type": "SCALAR",
      "bufferView": 2,
      "byteOffset": 1560
    },
    {
      "name": "/20-A-00-274-4.1_Mesh.18394-Mesh_0_positions",
      "componentType": 5126,
      "count": 24,
      "min": [
        -89.54998016357422,
        31.764142990112305,
        302.9091491699219
      ],
      "max": [
        -89.04998016357422,
        32.535858154296875,
        303.6808776855469
      ],
      "type": "VEC3",
      "bufferView": 0,
      "byteOffset": 7560
    },
    {
      "name": "/20-A-00-274-4.1_Mesh.18394-Mesh_0_normals",
      "componentType": 5126,
      "count": 24,
      "min": [
        -1,
        -0.7109960317611694,
        -0.7109960317611694
      ],
      "max": [
        1,
        0.7075066566467285,
        0.7075066566467285
      ],
      "type": "VEC3",
      "bufferView": 1,
      "byteOffset": 7560
    },
    {
      "name": "/20-A-00-274-4.1_Mesh.18394-Mesh_0_indices",
      "componentType": 5123,
      "count": 36,
      "min": [
        0
      ],
      "max": [
        23
      ],
      "type": "SCALAR",
      "bufferView": 2,
      "byteOffset": 2016
    },
    {
      "name": "/20-A-00-274-5_Mesh.18395-Mesh_0_positions",
      "componentType": 5126,
      "count": 120,
      "min": [
        -89.59998321533203,
        29.94999885559082,
        302.8450012207031
      ],
      "max": [
        -88.9999771118164,
        31.600000381469727,
        303.7450256347656
      ],
      "type": "VEC3",
      "bufferView": 0,
      "byteOffset": 7848
    },
    {
      "name": "/20-A-00-274-5_Mesh.18395-Mesh_0_normals",
      "componentType": 5126,
      "count": 120,
      "min": [
        -1,
        -1,
        -1
      ],
      "max": [
        1,
        1,
        1
      ],
      "type": "VEC3",
      "bufferView": 1,
      "byteOffset": 7848
    },
    {
      "name": "/20-A-00-274-5_Mesh.18395-Mesh_0_indices",
      "componentType": 5123,
      "count": 180,
      "min": [
        0
      ],
      "max": [
        119
      ],
      "type": "SCALAR",
      "bufferView": 2,
      "byteOffset": 2088
    },
    {
      "name": "/20-A-00-274-6_Mesh.18396-Mesh_0_positions",
      "componentType": 5126,
      "count": 168,
      "min": [
        -89.69998168945312,
        29.549999237060547,
        302.8450012207031
      ],
      "max": [
        -88.9999771118164,
        29.950000762939453,
        303.7450256347656
      ],
      "type": "VEC3",
      "bufferView": 0,
      "byteOffset": 9288
    },
    {
      "name": "/20-A-00-274-6_Mesh.18396-Mesh_0_normals",
      "componentType": 5126,
      "count": 168,
      "min": [
        -1,
        -1,
        -1
      ],
      "max": [
        1,
        1,
        1
      ],
      "type": "VEC3",
      "bufferView": 1,
      "byteOffset": 9288
    },
    {
      "name": "/20-A-00-274-6_Mesh.18396-Mesh_0_indices",
      "componentType": 5123,
      "count": 252,
      "min": [
        0
      ],
      "max": [
        167
      ],
      "type": "SCALAR",
      "bufferView": 2,
      "byteOffset": 2448
    }
  ],
  "asset": {
    "generator": "obj2gltf",
    "version": "2.0"
  },
  "buffers": [
    {
      "name": "HULDRA-HB-HVAC",
      "byteLength": 25560,
      "uri": "data:application/octet-stream;base64,"
    }
  ],
  "bufferViews": [
    {
      "name": "bufferView_0",
      "buffer": 0,
      "byteLength": 11304,
      "byteOffset": 0,
      "byteStride": 12,
      "target": 34962
    },
    {
      "name": "bufferView_1",
      "buffer": 0,
      "byteLength": 11304,
      "byteOffset": 11304,
      "byteStride": 12,
      "target": 34962
    },
    {
      "name": "bufferView_2",
      "buffer": 0,
      "byteLength": 2952,
      "byteOffset": 22608,
      "target": 34963
    }
  ],
  "materials": [
    {
      "name": "Color_32Translucent(0.00).059",
      "pbrMetallicRoughness": {
        "baseColorFactor": [
          0.584314,
          0.298039,
          0.262745,
          1
        ],
        "metallicFactor": 0,
        "roughnessFactor": 0.550000015
      },
      "emissiveFactor": [
        0,
        0,
        0
      ],
      "alphaMode": "OPAQUE",
      "doubleSided": false
    },
    {
      "name": "Color_32Translucent(0.00).060",
      "pbrMetallicRoughness": {
        "baseColorFactor": [
          0.584314,
          0.298039,
          0.262745,
          1
        ],
        "metallicFactor": 0,
        "roughnessFactor": 0.550000015
      },
      "emissiveFactor": [
        0,
        0,
        0
      ],
      "alphaMode": "OPAQUE",
      "doubleSided": false
    },
    {
      "name": "Color_32Translucent(0.00).061",
      "pbrMetallicRoughness": {
        "baseColorFactor": [
          0.584314,
          0.298039,
          0.262745,
          1
        ],
        "metallicFactor": 0,
        "roughnessFactor": 0.550000015
      },
      "emissiveFactor": [
        0,
        0,
        0
      ],
      "alphaMode": "OPAQUE",
      "doubleSided": false
    },
    {
      "name": "Color_32Translucent(0.00).062",
      "pbrMetallicRoughness": {
        "baseColorFactor": [
          0.584314,
          0.298039,
          0.262745,
          1
        ],
        "metallicFactor": 0,
        "roughnessFactor": 0.550000015
      },
      "emissiveFactor": [
        0,
        0,
        0
      ],
      "alphaMode": "OPAQUE",
      "doubleSided": false
    },
    {
      "name": "Color_32Translucent(0.00).063",
      "pbrMetallicRoughness": {
        "baseColorFactor": [
          0.584314,
          0.298039,
          0.262745,
          1
        ],
        "metallicFactor": 0,
        "roughnessFactor": 0.550000015
      },
      "emissiveFactor": [
        0,
        0,
        0
      ],
      "alphaMode": "OPAQUE",
      "doubleSided": false
    },
    {
      "name": "Color_32Translucent(0.00).064",
      "pbrMetallicRoughness": {
        "baseColorFactor": [
          0.584314,
          0.298039,
          0.262745,
          1
        ],
        "metallicFactor": 0,
        "roughnessFactor": 0.550000015
      },
      "emissiveFactor": [
        0,
        0,
        0
      ],
      "alphaMode": "OPAQUE",
      "doubleSided": false
    },
    {
      "name": "Color_32Translucent(0.00).065",
      "pbrMetallicRoughness": {
        "baseColorFactor": [
          0.584314,
          0.298039,
          0.262745,
          1
        ],
        "metallicFactor": 0,
        "roughnessFactor": 0.550000015
      },
      "emissiveFactor": [
        0,
        0,
        0
      ],
      "alphaMode": "OPAQUE",
      "doubleSided": false
    },
    {
      "name": "Color_32Translucent(0.00).066",
      "pbrMetallicRoughness": {
        "baseColorFactor": [
          0.584314,
          0.298039,
          0.262745,
          1
        ],
        "metallicFactor": 0,
        "roughnessFactor": 0.550000015
      },
      "emissiveFactor": [
        0,
        0,
        0
      ],
      "alphaMode": "OPAQUE",
      "doubleSided": false
    },
    {
      "name": "Color_32Translucent(0.00).067",
      "pbrMetallicRoughness": {
        "baseColorFactor": [
          0.584314,
          0.298039,
          0.262745,
          1
        ],
        "metallicFactor": 0,
        "roughnessFactor": 0.550000015
      },
      "emissiveFactor": [
        0,
        0,
        0
      ],
      "alphaMode": "OPAQUE",
      "doubleSided": false
    },
    {
      "name": "Color_32Translucent(0.00).068",
      "pbrMetallicRoughness": {
        "baseColorFactor": [
          0.584314,
          0.298039,
          0.262745,
          1
        ],
        "metallicFactor": 0,
        "roughnessFactor": 0.550000015
      },
      "emissiveFactor": [
        0,
        0,
        0
      ],
      "alphaMode": "OPAQUE",
      "doubleSided": false
    },
    {
      "name": "Color_32Translucent(0.00).069",
      "pbrMetallicRoughness": {
        "baseColorFactor": [
          0.584314,
          0.298039,
          0.262745,
          1
        ],
        "metallicFactor": 0,
        "roughnessFactor": 0.550000015
      },
      "emissiveFactor": [
        0,
        0,
        0
      ],
      "alphaMode": "OPAQUE",
      "doubleSided": false
    }
  ],
  "meshes": [
    {
      "name": "/20-A-00-274-1_Mesh.18386-Mesh",
      "primitives": [
        {
          "attributes": {
            "POSITION": 0,
            "NORMAL": 1
          },
          "indices": 2,
          "material": 0,
          "mode": 4
        }
      ]
    },
    {
      "name": "/20-A-00-274-1.1_Mesh.18387-Mesh",
      "primitives": [
        {
          "attributes": {
            "POSITION": 3,
            "NORMAL": 4
          },
          "indices": 5,
          "material": 1,
          "mode": 4
        }
      ]
    },
    {
      "name": "/20-A-00-274-2_Mesh.18388-Mesh",
      "primitives": [
        {
          "attributes": {
            "POSITION": 6,
            "NORMAL": 7
          },
          "indices": 8,
          "material": 2,
          "mode": 4
        }
      ]
    },
    {
      "name": "Box_Mesh.18389-Mesh",
      "primitives": [
        {
          "attributes": {
            "POSITION": 9,
            "NORMAL": 10
          },
          "indices": 11,
          "material": 3,
          "mode": 4
        }
      ]
    },
    {
      "name": "/20-A-00-274-2.1_Mesh.18390-Mesh",
      "primitives": [
        {
          "attributes": {
            "POSITION": 12,
            "NORMAL": 13
          },
          "indices": 14,
          "material": 4,
          "mode": 4
        }
      ]
    },
    {
      "name": "/20-A-00-274-3_Mesh.18391-Mesh",
      "primitives": [
        {
          "attributes": {
            "POSITION": 15,
            "NORMAL": 16
          },
          "indices": 17,
          "material": 5,
          "mode": 4
        }
      ]
    },
    {
      "name": "Box.001_Mesh.18392-Mesh",
      "primitives": [
        {
          "attributes": {
            "POSITION": 18,
            "NORMAL": 19
          },
          "indices": 20,
          "material": 6,
          "mode": 4
        }
      ]
    },
    {
      "name": "/20-A-00-274-4_Mesh.18393-Mesh",
      "primitives": [
        {
          "attributes": {
            "POSITION": 21,
            "NORMAL": 22
          },
          "indices": 23,
          "material": 7,
          "mode": 4
        }
      ]
    },
    {
      "name": "/20-A-00-274-4.1_Mesh.18394-Mesh",
      "primitives": [
        {
          "attributes": {
            "POSITION": 24,
            "NORMAL": 25
          },
          "indices": 26,
          "material": 8,
          "mode": 4
        }
      ]
    },
    {
      "name": "/20-A-00-274-5_Mesh.18395-Mesh",
      "primitives": [
        {
          "attributes": {
            "POSITION": 27,
            "NORMAL": 28
          },
          "indices": 29,
          "material": 9,
          "mode": 4
        }
      ]
    },
    {
      "name": "/20-A-00-274-6_Mesh.18396-Mesh",
      "primitives": [
        {
          "attributes": {
            "POSITION": 30,
            "NORMAL": 31
          },
          "indices": 32,
          "material": 10,
          "mode": 4
        }
      ]
    }
  ],
  "nodes": [
    {
      "name": "/20-A-00-274-1_Mesh.18386",
      "mesh": 0
    },
    {
      "name": "/20-A-00-274-1.1_Mesh.18387",
      "mesh": 1
    },
    {
      "name": "/20-A-00-274-2_Mesh.18388",
      "mesh": 2
    },
    {
      "name": "Box_Mesh.18389",
      "mesh": 3
    },
    {
      "name": "/20-A-00-274-2.1_Mesh.18390",
      "mesh": 4
    },
    {
      "name": "/20-A-00-274-3_Mesh.18391",
      "mesh": 5
    },
    {
      "name": "Box.001_Mesh.18392",
      "mesh": 6
    },
    {
      "name": "/20-A-00-274-4_Mesh.18393",
      "mesh": 7
    },
    {
      "name": "/20-A-00-274-4.1_Mesh.18394",
      "mesh": 8
    },
    {
      "name": "/20-A-00-274-5_Mesh.18395",
      "mesh": 9
    },
    {
      "name": "/20-A-00-274-6_Mesh.18396",
      "mesh": 10
    }
  ],
  "scene": 0,
  "scenes": [
    {
      "nodes": [
        0,
        1,
        2,
        3,
        4,
        5,
        6,
        7,
        8,
        9,
        10
      ]
    }
  ]
}
