# Blender v2.91.0 Alpha OBJ File: ''
# www.blender.org
mtllib huldra-smaller-walkway.mtl
o BOX_6_of_SUBSTRUCTURE_/ESCAPE-MEZZ/FLOOR_Mesh
v -109.999969 29.460001 310.825012
v -109.999969 29.440001 310.825012
v -109.999969 29.460001 311.825012
v -109.999969 29.440001 311.825012
v -117.699966 29.440001 311.825012
v -117.699966 29.440001 310.825012
v -117.699966 29.460001 311.825012
v -117.699966 29.460001 310.825012
vn 1.0000 0.0000 0.0000
vn -1.0000 0.0000 0.0000
vn 0.0000 -1.0000 0.0000
vn 0.0000 1.0000 0.0000
vn 0.0000 0.0000 1.0000
vn 0.0000 0.0000 -1.0000
usemtl Color_215Translucent(0.00)
s 1
f 3//1 2//1 1//1
f 3//1 4//1 2//1
f 7//2 6//2 5//2
f 7//2 8//2 6//2
f 5//3 2//3 4//3
f 5//3 6//3 2//3
f 8//4 3//4 1//4
f 8//4 7//4 3//4
f 7//5 4//5 3//5
f 7//5 5//5 4//5
f 8//6 2//6 6//6
f 8//6 1//6 2//6
o BOX_14_of_SUBSTRUCTURE_/ESCAPE-MEZZ/FLOOR_Mesh.001
v -118.699974 29.460001 294.500000
v -118.699974 29.440001 294.500000
v -118.699966 29.460001 309.825012
v -118.699966 29.440001 309.825012
v -119.699966 29.440001 309.825012
v -119.699974 29.440001 294.500000
v -119.699966 29.460001 309.825012
v -119.699974 29.460001 294.500000
vn 1.0000 0.0000 -0.0000
vn -1.0000 0.0000 0.0000
vn 0.0000 -1.0000 0.0000
vn 0.0000 1.0000 -0.0000
vn 0.0000 0.0000 1.0000
vn 0.0000 0.0000 -1.0000
usemtl Color_215Translucent(0.00).001
s 1
f 11//7 10//7 9//7
f 11//7 12//7 10//7
f 15//8 14//8 13//8
f 15//8 16//8 14//8
f 13//9 10//9 12//9
f 13//9 14//9 10//9
f 16//10 11//10 9//10
f 16//10 15//10 11//10
f 15//11 12//11 11//11
f 15//11 13//11 12//11
f 16//12 10//12 14//12
f 16//12 9//12 10//12
o RTORUS_1_of_SUBSTRUCTURE_/ESCAPE-MEZZ/FLOOR_Mesh.002
v -117.699646 29.460001 310.824310
v -118.008659 29.460001 310.775360
v -117.699646 29.440001 310.824310
v -118.008659 29.440001 310.775360
v -118.287430 29.460001 310.633331
v -118.287430 29.440001 310.633331
v -118.508659 29.460001 310.412109
v -118.508659 29.440001 310.412109
v -118.650703 29.460001 310.133331
v -118.650703 29.440001 310.133331
v -118.699646 29.460001 309.824310
v -118.699646 29.440001 309.824310
v -119.699646 29.440001 309.824310
v -119.601761 29.440001 310.442352
v -119.317680 29.440001 310.999878
v -118.875214 29.440001 311.442352
v -118.317680 29.440001 311.726410
v -117.699646 29.440001 311.824310
v -119.699646 29.460001 309.824310
v -119.601761 29.460001 310.442352
v -119.317680 29.460001 310.999878
v -118.875214 29.460001 311.442352
v -118.317680 29.460001 311.726410
v -117.699646 29.460001 311.824310
vn 0.1633 0.0000 -0.9866
vn 0.2592 0.0000 -0.9658
vn 0.1631 0.0000 -0.9866
vn 0.3605 0.0000 -0.9327
vn 0.2591 0.0000 -0.9659
vn 0.5420 0.0000 -0.8404
vn 0.6286 0.0000 -0.7778
vn 0.7778 -0.0000 -0.6285
vn 0.8404 0.0000 -0.5420
vn 0.9327 0.0000 -0.3606
vn 0.9658 -0.0000 -0.2592
vn 0.9866 -0.0000 -0.1632
vn 0.9658 0.0000 -0.2591
vn 0.9866 0.0000 -0.1631
vn 0.0000 -1.0000 -0.0000
vn -0.9877 0.0000 0.1564
vn -0.9673 -0.0000 0.2538
vn -0.9876 0.0000 0.1567
vn -0.9344 0.0000 0.3563
vn -0.9673 -0.0000 0.2537
vn -0.8417 0.0000 0.5400
vn -0.7785 0.0000 0.6276
vn -0.6276 0.0000 0.7785
vn -0.5399 0.0000 0.8417
vn -0.3564 0.0000 0.9343
vn -0.2538 0.0000 0.9673
vn -0.1569 0.0000 0.9876
vn -0.2537 -0.0000 0.9673
vn -0.1567 -0.0000 0.9876
vn 0.0000 1.0000 -0.0000
usemtl Color_215Translucent(0.00).002
s 1
f 19//13 18//14 17//13
f 19//15 20//16 18//17
f 20//16 21//18 18//17
f 20//16 22//19 21//18
f 22//19 23//20 21//18
f 22//19 24//21 23//20
f 24//21 25//22 23//20
f 24//21 26//23 25//22
f 26//23 27//24 25//22
f 26//25 28//26 27//26
f 28//27 30//27 29//27
f 28//27 26//27 30//27
f 26//27 31//27 30//27
f 26//27 24//27 31//27
f 24//27 32//27 31//27
f 24//27 22//27 32//27
f 22//27 33//27 32//27
f 22//27 20//27 33//27
f 20//27 34//27 33//27
f 20//27 19//27 34//27
f 29//28 36//29 35//28
f 29//30 30//31 36//32
f 30//31 37//33 36//32
f 30//31 31//34 37//33
f 31//34 38//35 37//33
f 31//34 32//36 38//35
f 32//36 39//37 38//35
f 32//36 33//38 39//37
f 33//38 40//39 39//37
f 33//40 34//41 40//41
f 35//42 25//42 27//42
f 35//42 36//42 25//42
f 36//42 23//42 25//42
f 36//42 37//42 23//42
f 37//42 21//42 23//42
f 37//42 38//42 21//42
f 38//42 18//42 21//42
f 38//42 39//42 18//42
f 39//42 17//42 18//42
f 39//42 40//42 17//42
