{
    "asset" : {
        "generator" : "Khronos glTF Blender I/O v3.3.32",
        "version" : "2.0"
    },
    "scene" : 0,
    "scenes" : [
        {
            "name" : "Scene",
            "nodes" : [
                0,
                1,
                2,
                3,
                4,
                5
            ]
        }
    ],
    "nodes" : [
        {
            "mesh" : 0,
            "name" : "/20-2000VF_Mesh.001"
        },
        {
            "mesh" : 1,
            "name" : "/43-4507VF_Mesh.001"
        },
        {
            "mesh" : 2,
            "name" : "/20-2006WI_Mesh.001"
        },
        {
            "mesh" : 3,
            "name" : "/20-2005WI_Mesh.001"
        },
        {
            "mesh" : 4,
            "name" : "/20-2004WI_Mesh.001"
        },
        {
            "mesh" : 5,
            "name" : "/20-2003VF_Mesh.001"
        }
    ],
    "materials" : [
        {
            "name" : "Color_12Translucent(0.00).406",
            "pbrMetallicRoughness" : {
                "baseColorFactor" : [
                    0.7529410123825073,
                    0.7529410123825073,
                    0.7529410123825073,
                    1
                ],
                "metallicFactor" : 0,
                "roughnessFactor" : 0.550000011920929
            }
        },
        {
            "name" : "Color_12Translucent(0.00).407",
            "pbrMetallicRoughness" : {
                "baseColorFactor" : [
                    0.7529410123825073,
                    0.7529410123825073,
                    0.7529410123825073,
                    1
                ],
                "metallicFactor" : 0,
                "roughnessFactor" : 0.550000011920929
            }
        },
        {
            "name" : "Color_12Translucent(0.00).408",
            "pbrMetallicRoughness" : {
                "baseColorFactor" : [
                    0.7529410123825073,
                    0.7529410123825073,
                    0.7529410123825073,
                    1
                ],
                "metallicFactor" : 0,
                "roughnessFactor" : 0.550000011920929
            }
        },
        {
            "name" : "Color_12Translucent(0.00).409",
            "pbrMetallicRoughness" : {
                "baseColorFactor" : [
                    0.7529410123825073,
                    0.7529410123825073,
                    0.7529410123825073,
                    1
                ],
                "metallicFactor" : 0,
                "roughnessFactor" : 0.550000011920929
            }
        },
        {
            "name" : "Color_12Translucent(0.00).410",
            "pbrMetallicRoughness" : {
                "baseColorFactor" : [
                    0.7529410123825073,
                    0.7529410123825073,
                    0.7529410123825073,
                    1
                ],
                "metallicFactor" : 0,
                "roughnessFactor" : 0.550000011920929
            }
        },
        {
            "name" : "Color_12Translucent(0.00).411",
            "pbrMetallicRoughness" : {
                "baseColorFactor" : [
                    0.7529410123825073,
                    0.7529410123825073,
                    0.7529410123825073,
                    1
                ],
                "metallicFactor" : 0,
                "roughnessFactor" : 0.550000011920929
            }
        }
    ],
    "meshes" : [
        {
            "name" : "/20-2000VF_Mesh.524-Mesh.001",
            "primitives" : [
                {
                    "attributes" : {
                        "POSITION" : 0,
                        "NORMAL" : 1
                    },
                    "indices" : 2,
                    "material" : 0
                }
            ]
        },
        {
            "name" : "/43-4507VF_Mesh.639-Mesh.001",
            "primitives" : [
                {
                    "attributes" : {
                        "POSITION" : 3,
                        "NORMAL" : 4
                    },
                    "indices" : 5,
                    "material" : 1
                }
            ]
        },
        {
            "name" : "/20-2006WI_Mesh.462-Mesh.001",
            "primitives" : [
                {
                    "attributes" : {
                        "POSITION" : 6,
                        "NORMAL" : 7
                    },
                    "indices" : 8,
                    "material" : 2
                }
            ]
        },
        {
            "name" : "/20-2005WI_Mesh.474-Mesh.001",
            "primitives" : [
                {
                    "attributes" : {
                        "POSITION" : 9,
                        "NORMAL" : 10
                    },
                    "indices" : 11,
                    "material" : 3
                }
            ]
        },
        {
            "name" : "/20-2004WI_Mesh.432-Mesh.001",
            "primitives" : [
                {
                    "attributes" : {
                        "POSITION" : 12,
                        "NORMAL" : 13
                    },
                    "indices" : 14,
                    "material" : 4
                }
            ]
        },
        {
            "name" : "/20-2003VF_Mesh.504-Mesh.001",
            "primitives" : [
                {
                    "attributes" : {
                        "POSITION" : 15,
                        "NORMAL" : 16
                    },
                    "indices" : 17,
                    "material" : 5
                }
            ]
        }
    ],
    "accessors" : [
        {
            "bufferView" : 0,
            "componentType" : 5126,
            "count" : 2289,
            "max" : [
                -116.49148559570312,
                30.860254287719727,
                305.01251220703125
            ],
            "min" : [
                -117.53617095947266,
                29.603639602661133,
                304.17950439453125
            ],
            "type" : "VEC3"
        },
        {
            "bufferView" : 1,
            "componentType" : 5126,
            "count" : 2289,
            "type" : "VEC3"
        },
        {
            "bufferView" : 2,
            "componentType" : 5123,
            "count" : 5928,
            "type" : "SCALAR"
        },
        {
            "bufferView" : 3,
            "componentType" : 5126,
            "count" : 3263,
            "max" : [
                -118.00203704833984,
                31.511770248413086,
                304.7869873046875
            ],
            "min" : [
                -118.68304443359375,
                30.730770111083984,
                303.4960021972656
            ],
            "type" : "VEC3"
        },
        {
            "bufferView" : 4,
            "componentType" : 5126,
            "count" : 3263,
            "type" : "VEC3"
        },
        {
            "bufferView" : 5,
            "componentType" : 5123,
            "count" : 10716,
            "type" : "SCALAR"
        },
        {
            "bufferView" : 6,
            "componentType" : 5126,
            "count" : 2092,
            "max" : [
                -113.55182647705078,
                29.973649978637695,
                306.572998046875
            ],
            "min" : [
                -114.22061920166016,
                29.304855346679688,
                306.20098876953125
            ],
            "type" : "VEC3"
        },
        {
            "bufferView" : 7,
            "componentType" : 5126,
            "count" : 2092,
            "type" : "VEC3"
        },
        {
            "bufferView" : 8,
            "componentType" : 5123,
            "count" : 6888,
            "type" : "SCALAR"
        },
        {
            "bufferView" : 9,
            "componentType" : 5126,
            "count" : 1785,
            "max" : [
                -113.31695556640625,
                29.86345672607422,
                306.17138671875
            ],
            "min" : [
                -113.84390258789062,
                29.334697723388672,
                305.7979431152344
            ],
            "type" : "VEC3"
        },
        {
            "bufferView" : 10,
            "componentType" : 5126,
            "count" : 1785,
            "type" : "VEC3"
        },
        {
            "bufferView" : 11,
            "componentType" : 5123,
            "count" : 6024,
            "type" : "SCALAR"
        },
        {
            "bufferView" : 12,
            "componentType" : 5126,
            "count" : 2096,
            "max" : [
                -113.57347869873047,
                30.0987491607666,
                303.0299987792969
            ],
            "min" : [
                -114.24227142333984,
                29.429954528808594,
                302.6579895019531
            ],
            "type" : "VEC3"
        },
        {
            "bufferView" : 13,
            "componentType" : 5126,
            "count" : 2096,
            "type" : "VEC3"
        },
        {
            "bufferView" : 14,
            "componentType" : 5123,
            "count" : 6888,
            "type" : "SCALAR"
        },
        {
            "bufferView" : 15,
            "componentType" : 5126,
            "count" : 1947,
            "max" : [
                -114.19309997558594,
                30.518163681030273,
                308.0245056152344
            ],
            "min" : [
                -114.8197021484375,
                29.891563415527344,
                307.7754821777344
            ],
            "type" : "VEC3"
        },
        {
            "bufferView" : 16,
            "componentType" : 5126,
            "count" : 1947,
            "type" : "VEC3"
        },
        {
            "bufferView" : 17,
            "componentType" : 5123,
            "count" : 6024,
            "type" : "SCALAR"
        }
    ],
    "bufferViews" : [
        {
            "buffer" : 0,
            "byteLength" : 27468,
            "byteOffset" : 0,
            "target" : 34962
        },
        {
            "buffer" : 0,
            "byteLength" : 27468,
            "byteOffset" : 27468,
            "target" : 34962
        },
        {
            "buffer" : 0,
            "byteLength" : 11856,
            "byteOffset" : 54936,
            "target" : 34963
        },
        {
            "buffer" : 0,
            "byteLength" : 39156,
            "byteOffset" : 66792,
            "target" : 34962
        },
        {
            "buffer" : 0,
            "byteLength" : 39156,
            "byteOffset" : 105948,
            "target" : 34962
        },
        {
            "buffer" : 0,
            "byteLength" : 21432,
            "byteOffset" : 145104,
            "target" : 34963
        },
        {
            "buffer" : 0,
            "byteLength" : 25104,
            "byteOffset" : 166536,
            "target" : 34962
        },
        {
            "buffer" : 0,
            "byteLength" : 25104,
            "byteOffset" : 191640,
            "target" : 34962
        },
        {
            "buffer" : 0,
            "byteLength" : 13776,
            "byteOffset" : 216744,
            "target" : 34963
        },
        {
            "buffer" : 0,
            "byteLength" : 21420,
            "byteOffset" : 230520,
            "target" : 34962
        },
        {
            "buffer" : 0,
            "byteLength" : 21420,
            "byteOffset" : 251940,
            "target" : 34962
        },
        {
            "buffer" : 0,
            "byteLength" : 12048,
            "byteOffset" : 273360,
            "target" : 34963
        },
        {
            "buffer" : 0,
            "byteLength" : 25152,
            "byteOffset" : 285408,
            "target" : 34962
        },
        {
            "buffer" : 0,
            "byteLength" : 25152,
            "byteOffset" : 310560,
            "target" : 34962
        },
        {
            "buffer" : 0,
            "byteLength" : 13776,
            "byteOffset" : 335712,
            "target" : 34963
        },
        {
            "buffer" : 0,
            "byteLength" : 23364,
            "byteOffset" : 349488,
            "target" : 34962
        },
        {
            "buffer" : 0,
            "byteLength" : 23364,
            "byteOffset" : 372852,
            "target" : 34962
        },
        {
            "buffer" : 0,
            "byteLength" : 12048,
            "byteOffset" : 396216,
            "target" : 34963
        }
    ],
    "buffers" : [
        {
            "byteLength" : 408264,
            "uri" : "data:application/octet-stream;base64,"
        }
    ]
}
