{
  "accessors": [
    {
      "name": "BOX_6_of_SUBSTRUCTURE_/ESCAPE-MEZZ/FLOOR_Mesh-Mesh_0_positions",
      "componentType": 5126,
      "count": 24,
      "min": [
        -117.69996643066406,
        29.440000534057617,
        310.82501220703125
      ],
      "max": [
        -109.99996948242188,
        29.46000099182129,
        311.82501220703125
      ],
      "type": "VEC3",
      "bufferView": 0,
      "byteOffset": 0
    },
    {
      "name": "BOX_6_of_SUBSTRUCTURE_/ESCAPE-MEZZ/FLOOR_Mesh-Mesh_0_normals",
      "componentType": 5126,
      "count": 24,
      "min": [
        -1,
        -1,
        -1
      ],
      "max": [
        1,
        1,
        1
      ],
      "type": "VEC3",
      "bufferView": 1,
      "byteOffset": 0
    },
    {
      "name": "BOX_6_of_SUBSTRUCTURE_/ESCAPE-MEZZ/FLOOR_Mesh-Mesh_0_indices",
      "componentType": 5123,
      "count": 36,
      "min": [
        0
      ],
      "max": [
        23
      ],
      "type": "SCALAR",
      "bufferView": 2,
      "byteOffset": 0
    },
    {
      "name": "BOX_14_of_SUBSTRUCTURE_/ESCAPE-MEZZ/FLOOR_Mesh.001-Mesh_0_positions",
      "componentType": 5126,
      "count": 24,
      "min": [
        -119.6999740600586,
        29.440000534057617,
        294.5
      ],
      "max": [
        -118.69996643066406,
        29.46000099182129,
        309.82501220703125
      ],
      "type": "VEC3",
      "bufferView": 0,
      "byteOffset": 288
    },
    {
      "name": "BOX_14_of_SUBSTRUCTURE_/ESCAPE-MEZZ/FLOOR_Mesh.001-Mesh_0_normals",
      "componentType": 5126,
      "count": 24,
      "min": [
        -1,
        -1,
        -1
      ],
      "max": [
        1,
        1,
        1
      ],
      "type": "VEC3",
      "bufferView": 1,
      "byteOffset": 288
    },
    {
      "name": "BOX_14_of_SUBSTRUCTURE_/ESCAPE-MEZZ/FLOOR_Mesh.001-Mesh_0_indices",
      "componentType": 5123,
      "count": 36,
      "min": [
        0
      ],
      "max": [
        23
      ],
      "type": "SCALAR",
      "bufferView": 2,
      "byteOffset": 72
    },
    {
      "name": "RTORUS_1_of_SUBSTRUCTURE_/ESCAPE-MEZZ/FLOOR_Mesh.002-Mesh_0_positions",
      "componentType": 5126,
      "count": 56,
      "min": [
        -119.69964599609375,
        29.440000534057617,
        309.8243103027344
      ],
      "max": [
        -117.69964599609375,
        29.46000099182129,
        311.8243103027344
      ],
      "type": "VEC3",
      "bufferView": 0,
      "byteOffset": 576
    },
    {
      "name": "RTORUS_1_of_SUBSTRUCTURE_/ESCAPE-MEZZ/FLOOR_Mesh.002-Mesh_0_normals",
      "componentType": 5126,
      "count": 56,
      "min": [
        -0.9876939654350281,
        -1,
        -0.9866092801094055
      ],
      "max": [
        0.9866092801094055,
        1,
        0.9876450896263123
      ],
      "type": "VEC3",
      "bufferView": 1,
      "byteOffset": 576
    },
    {
      "name": "RTORUS_1_of_SUBSTRUCTURE_/ESCAPE-MEZZ/FLOOR_Mesh.002-Mesh_0_indices",
      "componentType": 5123,
      "count": 120,
      "min": [
        0
      ],
      "max": [
        55
      ],
      "type": "SCALAR",
      "bufferView": 2,
      "byteOffset": 144
    }
  ],
  "asset": {
    "generator": "obj2gltf",
    "version": "2.0"
  },
  "buffers": [
    {
      "name": "huldra-smaller-walkway",
      "byteLength": 2880,
      "uri": "data:application/octet-stream;base64,"
    }
  ],
  "bufferViews": [
    {
      "name": "bufferView_0",
      "buffer": 0,
      "byteLength": 1248,
      "byteOffset": 0,
      "byteStride": 12,
      "target": 34962
    },
    {
      "name": "bufferView_1",
      "buffer": 0,
      "byteLength": 1248,
      "byteOffset": 1248,
      "byteStride": 12,
      "target": 34962
    },
    {
      "name": "bufferView_2",
      "buffer": 0,
      "byteLength": 384,
      "byteOffset": 2496,
      "target": 34963
    }
  ],
  "materials": [
    {
      "name": "Color_215Translucent(0.00)",
      "pbrMetallicRoughness": {
        "baseColorFactor": [
          1,
          1,
          0.501961,
          1
        ],
        "metallicFactor": 0,
        "roughnessFactor": 0.550000015
      },
      "emissiveFactor": [
        0,
        0,
        0
      ],
      "alphaMode": "OPAQUE",
      "doubleSided": false
    },
    {
      "name": "Color_215Translucent(0.00).001",
      "pbrMetallicRoughness": {
        "baseColorFactor": [
          1,
          1,
          0.501961,
          1
        ],
        "metallicFactor": 0,
        "roughnessFactor": 0.550000015
      },
      "emissiveFactor": [
        0,
        0,
        0
      ],
      "alphaMode": "OPAQUE",
      "doubleSided": false
    },
    {
      "name": "Color_215Translucent(0.00).002",
      "pbrMetallicRoughness": {
        "baseColorFactor": [
          1,
          1,
          0.501961,
          1
        ],
        "metallicFactor": 0,
        "roughnessFactor": 0.550000015
      },
      "emissiveFactor": [
        0,
        0,
        0
      ],
      "alphaMode": "OPAQUE",
      "doubleSided": false
    }
  ],
  "meshes": [
    {
      "name": "BOX_6_of_SUBSTRUCTURE_/ESCAPE-MEZZ/FLOOR_Mesh-Mesh",
      "primitives": [
        {
          "attributes": {
            "POSITION": 0,
            "NORMAL": 1
          },
          "indices": 2,
          "material": 0,
          "mode": 4
        }
      ]
    },
    {
      "name": "BOX_14_of_SUBSTRUCTURE_/ESCAPE-MEZZ/FLOOR_Mesh.001-Mesh",
      "primitives": [
        {
          "attributes": {
            "POSITION": 3,
            "NORMAL": 4
          },
          "indices": 5,
          "material": 1,
          "mode": 4
        }
      ]
    },
    {
      "name": "RTORUS_1_of_SUBSTRUCTURE_/ESCAPE-MEZZ/FLOOR_Mesh.002-Mesh",
      "primitives": [
        {
          "attributes": {
            "POSITION": 6,
            "NORMAL": 7
          },
          "indices": 8,
          "material": 2,
          "mode": 4
        }
      ]
    }
  ],
  "nodes": [
    {
      "name": "BOX_6_of_SUBSTRUCTURE_/ESCAPE-MEZZ/FLOOR_Mesh",
      "mesh": 0
    },
    {
      "name": "BOX_14_of_SUBSTRUCTURE_/ESCAPE-MEZZ/FLOOR_Mesh.001",
      "mesh": 1
    },
    {
      "name": "RTORUS_1_of_SUBSTRUCTURE_/ESCAPE-MEZZ/FLOOR_Mesh.002",
      "mesh": 2
    }
  ],
  "scene": 0,
  "scenes": [
    {
      "nodes": [
        0,
        1,
        2
      ]
    }
  ]
}
